<?xml version="1.0" encoding="utf-8"?>
<!-- Generator: Adobe Illustrator 26.5.2, SVG Export Plug-In . SVG Version: 6.00 Build 0)  -->
<svg version="1.1" id="Ebene_1" xmlns="http://www.w3.org/2000/svg" xmlns:xlink="http://www.w3.org/1999/xlink" x="0px" y="0px"
	 viewBox="0 0 800 800" style="enable-background:new 0 0 800 800;" xml:space="preserve">
<style type="text/css">
	.st0{fill:url(#SVGID_1_);}
	.st1{opacity:0.3;fill:url(#SVGID_00000096049727318493283120000017696500088250324370_);}
	.st2{fill:none;stroke:#FFFFFF;stroke-width:38;stroke-linecap:round;stroke-miterlimit:10;}
	.st3{fill:#FFFFFF;}
</style>
<radialGradient id="SVGID_1_" cx="93.0026" cy="222.8188" r="562.3" fx="-454.4702" fy="136.6145" gradientTransform="matrix(0.8121 0.5835 -0.5843 0.8132 454.6656 164.5367)" gradientUnits="userSpaceOnUse">
	<stop  offset="0" style="stop-color:#5B255B"/>
	<stop  offset="1" style="stop-color:#5B255B"/>
</radialGradient>
<path class="st0" d="M650,800H150C67.2,800,0,732.8,0,650V150C0,67.2,67.2,0,150,0h500c82.8,0,150,67.2,150,150v500
	C800,732.8,732.8,800,650,800z"/>
<radialGradient id="SVGID_00000066483283069265281010000003100599342489640367_" cx="93.0026" cy="222.8188" r="562.3" fx="-454.4702" fy="136.6145" gradientTransform="matrix(0.8121 0.5835 -0.5843 0.8132 454.6656 164.5367)" gradientUnits="userSpaceOnUse">
	<stop  offset="0" style="stop-color:#FFFFFF"/>
	<stop  offset="1" style="stop-color:#000000"/>
</radialGradient>
<path style="opacity:0.3;fill:url(#SVGID_00000066483283069265281010000003100599342489640367_);" d="M650,800H150
	C67.2,800,0,732.8,0,650V150C0,67.2,67.2,0,150,0h500c82.8,0,150,67.2,150,150v500C800,732.8,732.8,800,650,800z"/>
<g>
	<path class="st2" d="M595.4,380.7c-11-96.5-93-171.4-192.4-171.4c-107,0-193.7,86.7-193.7,193.7c0,99.4,74.9,181.4,171.4,192.4"/>
	<circle class="st3" cx="541.2" cy="541.2" r="93.3"/>
</g>
</svg>
