<svg width="120" height="120" viewBox="0 0 120 120" fill="none" xmlns="http://www.w3.org/2000/svg">
<rect width="120" height="120" rx="21" fill="url(#paint0_radial_141_97)"/>
<path d="M78.2857 37H41.7143C40.5019 37 39.3391 37.4816 38.4818 38.3389C37.6245 39.1962 37.1429 40.359 37.1429 41.5714V78.1429C37.1429 79.3553 37.6245 80.518 38.4818 81.3753C39.3391 82.2327 40.5019 82.7143 41.7143 82.7143H78.2857C79.4981 82.7143 80.6609 82.2327 81.5182 81.3753C82.3755 80.518 82.8571 79.3553 82.8571 78.1429V41.5714C82.8571 40.359 82.3755 39.1962 81.5182 38.3389C80.6609 37.4816 79.4981 37 78.2857 37ZM78.2857 78.1429H41.7143V41.5714H78.2857V78.1429ZM92 39.2857V80.4286C92 81.0348 91.7592 81.6162 91.3305 82.0448C90.9019 82.4735 90.3205 82.7143 89.7143 82.7143C89.1081 82.7143 88.5267 82.4735 88.098 82.0448C87.6694 81.6162 87.4286 81.0348 87.4286 80.4286V39.2857C87.4286 38.6795 87.6694 38.0981 88.098 37.6695C88.5267 37.2408 89.1081 37 89.7143 37C90.3205 37 90.9019 37.2408 91.3305 37.6695C91.7592 38.0981 92 38.6795 92 39.2857ZM32.5714 39.2857V80.4286C32.5714 81.0348 32.3306 81.6162 31.902 82.0448C31.4733 82.4735 30.8919 82.7143 30.2857 82.7143C29.6795 82.7143 29.0981 82.4735 28.6695 82.0448C28.2408 81.6162 28 81.0348 28 80.4286V39.2857C28 38.6795 28.2408 38.0981 28.6695 37.6695C29.0981 37.2408 29.6795 37 30.2857 37C30.8919 37 31.4733 37.2408 31.902 37.6695C32.3306 38.0981 32.5714 38.6795 32.5714 39.2857Z" fill="white"/>
<defs>
<radialGradient id="paint0_radial_141_97" cx="0" cy="0" r="1" gradientUnits="userSpaceOnUse" gradientTransform="rotate(45) scale(169.706)">
<stop stop-color="#9F4570"/>
<stop offset="1" stop-color="#71265C"/>
</radialGradient>
</defs>
</svg>
