<svg width="120" height="120" viewBox="0 0 120 120" fill="none" xmlns="http://www.w3.org/2000/svg">
<rect width="120" height="120" rx="21" fill="url(#paint0_radial_80_1668)"/>
<path d="M57.108 92.16C57 92.16 56.892 92.154 56.781 92.142C40.683 90.3075 28.5435 76.683 28.5435 60.45C28.5435 51.9255 31.8615 43.914 37.887 37.8885C43.9125 31.863 51.924 28.545 60.4485 28.545C76.68 28.545 90.3045 40.6845 92.1405 56.7825C92.319 58.347 91.1955 59.7585 89.631 59.937C88.068 60.114 86.655 58.992 86.4765 57.4275C84.9705 44.211 73.7805 34.245 60.4485 34.245C45.999 34.245 34.2435 46.0005 34.2435 60.45C34.2435 73.782 44.2095 84.972 57.426 86.478C58.9905 86.6565 60.1125 88.068 59.9355 89.6325C59.769 91.0875 58.5375 92.16 57.108 92.16Z" fill="white"/>
<path d="M81.18 95.175C88.9092 95.175 95.175 88.9092 95.175 81.18C95.175 73.4508 88.9092 67.185 81.18 67.185C73.4508 67.185 67.185 73.4508 67.185 81.18C67.185 88.9092 73.4508 95.175 81.18 95.175Z" fill="white"/>
<defs>
<radialGradient id="paint0_radial_80_1668" cx="0" cy="0" r="1" gradientUnits="userSpaceOnUse" gradientTransform="rotate(45) scale(169.706)">
<stop stop-color="#9F4570"/>
<stop offset="1" stop-color="#71265C"/>
</radialGradient>
</defs>
</svg>
