<?xml version="1.0" encoding="utf-8"?>
<!-- Generator: Adobe Illustrator 27.5.0, SVG Export Plug-In . SVG Version: 6.00 Build 0)  -->
<svg version="1.1" id="Ebene_1" xmlns="http://www.w3.org/2000/svg" xmlns:xlink="http://www.w3.org/1999/xlink" x="0px" y="0px"
	 viewBox="0 0 800 800" style="enable-background:new 0 0 800 800;" xml:space="preserve">
<style type="text/css">
	.st0{fill:#FFFFFF;}
</style>
<g>
	<path class="st0" d="M376.7,639.8c-0.8,0-1.6,0-2.4-0.1c-120.8-13.8-211.9-116-211.9-237.8c0-64,24.9-124.1,70.1-169.3
		s105.3-70.1,169.3-70.1c121.8,0,224,91.1,237.8,211.9c1.3,11.7-7.1,22.3-18.8,23.7c-11.7,1.3-22.3-7.1-23.7-18.8
		c-11.3-99.2-95.3-174-195.3-174c-108.4,0-196.6,88.2-196.6,196.6c0,100,74.8,184,174,195.3c11.7,1.3,20.2,11.9,18.8,23.7
		C396.7,631.7,387.5,639.8,376.7,639.8z"/>
	<circle class="st0" cx="557.4" cy="557.4" r="105"/>
</g>
</svg>
